<svg width="220" height="33" viewBox="0 0 220 33" fill="none" xmlns="http://www.w3.org/2000/svg">
<path d="M14.765 16.015C14.765 8.68833 12.7583 5.025 8.745 5.025C4.73167 5.025 2.725 8.68833 2.725 16.015C2.725 23.365 4.73167 27.04 8.745 27.04C12.7583 27.04 14.765 23.365 14.765 16.015ZM17.285 16.015C17.285 24.835 14.4383 29.245 8.745 29.245C3.005 29.245 0.135 24.835 0.135 16.015C0.135 12.3517 0.695 9.37667 1.815 7.09C3.23833 4.22 5.54833 2.785 8.745 2.785C11.895 2.785 14.1933 4.22 15.64 7.09C16.1767 8.23333 16.585 9.54 16.865 11.01C17.145 12.48 17.285 14.1483 17.285 16.015ZM32.1406 28.615C32.1406 28.9417 31.9773 29.105 31.6506 29.105H30.2156C29.8889 29.105 29.7256 28.9417 29.7256 28.615V5.865C29.0023 6.47167 28.3256 7.04333 27.6956 7.58C27.0656 8.11667 26.4006 8.68833 25.7006 9.295C25.4439 9.505 25.2106 9.48167 25.0006 9.225L24.3006 8.385C24.2306 8.26833 24.1956 8.15167 24.1956 8.035C24.1956 7.895 24.2539 7.77833 24.3706 7.685L29.7956 3.135C29.8889 3.04167 30.0289 2.995 30.2156 2.995H31.1606C31.6506 2.995 31.9306 3.04167 32.0006 3.135C32.0939 3.205 32.1406 3.485 32.1406 3.975V28.615Z" fill="#FFD700"/>
<path d="M69.7557 7.02C69.7557 7.76667 69.5924 8.47833 69.2657 9.155C68.9624 9.83167 68.5074 10.4383 67.9007 10.975C67.3174 11.5117 66.6057 11.9667 65.7657 12.34C64.9491 12.69 64.0157 12.9117 62.9657 13.005V16.4C64.7391 16.3533 66.4424 16.295 68.0757 16.225C69.7091 16.1317 71.2374 16.0033 72.6607 15.84C72.8707 15.8167 72.9991 15.84 73.0457 15.91C73.1157 15.9567 73.1624 16.0383 73.1857 16.155L73.3257 17.345C73.3491 17.485 73.3257 17.59 73.2557 17.66C73.2091 17.73 73.0807 17.7883 72.8707 17.835C70.9807 18.0917 68.8691 18.2783 66.5357 18.395C64.2257 18.4883 61.9041 18.535 59.5707 18.535H52.2907C52.1507 18.535 52.0224 18.4883 51.9057 18.395C51.8124 18.3017 51.7657 18.1967 51.7657 18.08V16.855C51.7657 16.715 51.8124 16.61 51.9057 16.54C52.0224 16.47 52.1507 16.435 52.2907 16.435H58.3457H60.5507V13.005C59.5474 12.9117 58.6374 12.69 57.8207 12.34C57.0041 11.9667 56.3041 11.5233 55.7207 11.01C55.1607 10.4733 54.7174 9.86667 54.3907 9.19C54.0874 8.51333 53.9357 7.79 53.9357 7.02C53.9357 6.08667 54.1224 5.24667 54.4957 4.5C54.8691 3.75333 55.3941 3.12333 56.0707 2.61C56.7707 2.07333 57.5991 1.665 58.5557 1.385C59.5124 1.08167 60.5857 0.929998 61.7757 0.929998C62.8957 0.929998 63.9341 1.08167 64.8907 1.385C65.8707 1.665 66.7224 2.07333 67.4457 2.61C68.1691 3.12333 68.7291 3.765 69.1257 4.535C69.5457 5.28166 69.7557 6.11 69.7557 7.02ZM77.6657 26.795C77.6657 27.775 77.3624 28.615 76.7557 29.315C76.1724 30.0383 75.3907 30.6333 74.4107 31.1C73.4307 31.5667 72.3107 31.905 71.0507 32.115C69.7907 32.3483 68.4957 32.465 67.1657 32.465C65.7191 32.465 64.3541 32.3483 63.0707 32.115C61.8107 31.905 60.7024 31.5667 59.7457 31.1C58.8124 30.6333 58.0657 30.0383 57.5057 29.315C56.9691 28.615 56.7007 27.775 56.7007 26.795C56.7007 25.815 56.9691 24.975 57.5057 24.275C58.0657 23.575 58.8124 23.0033 59.7457 22.56C60.7024 22.1167 61.8107 21.79 63.0707 21.58C64.3541 21.37 65.7191 21.265 67.1657 21.265C68.4957 21.265 69.7907 21.37 71.0507 21.58C72.3107 21.79 73.4307 22.1167 74.4107 22.56C75.3907 23.0033 76.1724 23.575 76.7557 24.275C77.3624 24.975 77.6657 25.815 77.6657 26.795ZM75.1807 26.9C75.1807 26.2467 74.9591 25.6983 74.5157 25.255C74.0724 24.7883 73.4774 24.415 72.7307 24.135C71.9841 23.855 71.1207 23.6567 70.1407 23.54C69.1841 23.4233 68.1807 23.365 67.1307 23.365C65.9641 23.365 64.8907 23.4233 63.9107 23.54C62.9541 23.6567 62.1257 23.855 61.4257 24.135C60.7257 24.415 60.1774 24.7883 59.7807 25.255C59.3841 25.6983 59.1857 26.2467 59.1857 26.9C59.1857 27.53 59.3841 28.0667 59.7807 28.51C60.1774 28.93 60.7257 29.28 61.4257 29.56C62.1257 29.84 62.9541 30.0383 63.9107 30.155C64.8907 30.295 65.9641 30.365 67.1307 30.365C68.1807 30.365 69.1841 30.295 70.1407 30.155C71.1207 30.0383 71.9841 29.84 72.7307 29.56C73.4774 29.28 74.0724 28.93 74.5157 28.51C74.9591 28.0667 75.1807 27.53 75.1807 26.9ZM67.3757 6.985C67.3757 6.33167 67.2124 5.76 66.8857 5.27C66.5824 4.78 66.1741 4.38333 65.6607 4.08C65.1474 3.75333 64.5524 3.50833 63.8757 3.345C63.1991 3.18167 62.4991 3.1 61.7757 3.1C61.0291 3.1 60.3174 3.18167 59.6407 3.345C58.9874 3.50833 58.4157 3.75333 57.9257 4.08C57.4357 4.40667 57.0391 4.815 56.7357 5.305C56.4557 5.77167 56.3157 6.33167 56.3157 6.985C56.3157 7.59167 56.4557 8.14 56.7357 8.63C57.0157 9.12 57.4007 9.54 57.8907 9.89C58.3807 10.2167 58.9524 10.4733 59.6057 10.66C60.2824 10.8467 61.0057 10.94 61.7757 10.94C62.4991 10.94 63.1991 10.8467 63.8757 10.66C64.5524 10.4733 65.1474 10.205 65.6607 9.855C66.1741 9.505 66.5824 9.09667 66.8857 8.63C67.2124 8.14 67.3757 7.59167 67.3757 6.985ZM77.2107 20.145C77.2107 20.4717 77.0474 20.635 76.7207 20.635H75.2857C74.9591 20.635 74.7957 20.4717 74.7957 20.145V0.579999C74.7957 0.253332 74.9591 0.0899988 75.2857 0.0899988H76.7207C77.0474 0.0899988 77.2107 0.253332 77.2107 0.579999V10.345H82.0407C82.1807 10.345 82.2974 10.3917 82.3907 10.485C82.5074 10.555 82.5657 10.66 82.5657 10.8V11.99C82.5657 12.1067 82.5074 12.2117 82.3907 12.305C82.2974 12.3983 82.1807 12.445 82.0407 12.445H77.2107V20.145ZM110.126 23.82C110.126 24.1467 109.962 24.31 109.636 24.31H108.201C107.874 24.31 107.711 24.1467 107.711 23.82V0.579999C107.711 0.253332 107.874 0.0899988 108.201 0.0899988H109.636C109.962 0.0899988 110.126 0.253332 110.126 0.579999V11.36H114.956C115.096 11.36 115.212 11.4067 115.306 11.5C115.422 11.57 115.481 11.675 115.481 11.815V13.005C115.481 13.1217 115.422 13.2267 115.306 13.32C115.212 13.4133 115.096 13.46 114.956 13.46H110.126V23.82ZM105.961 16.645C106.171 16.6217 106.299 16.645 106.346 16.715C106.416 16.7617 106.462 16.8433 106.486 16.96L106.626 18.15C106.649 18.29 106.626 18.4067 106.556 18.5C106.509 18.57 106.381 18.6167 106.171 18.64C104.654 18.8267 102.717 18.99 100.361 19.13C98.0274 19.27 95.4024 19.34 92.4858 19.34H85.2058C85.0658 19.34 84.9374 19.2933 84.8208 19.2C84.7274 19.1067 84.6808 19.0017 84.6808 18.885V17.66C84.6808 17.52 84.7274 17.415 84.8208 17.345C84.9374 17.275 85.0658 17.24 85.2058 17.24H91.2608H92.6258V10.135C92.6258 9.80833 92.7891 9.645 93.1158 9.645H94.5508C94.8774 9.645 95.0408 9.80833 95.0408 10.135V17.24C97.1174 17.1933 99.0891 17.135 100.956 17.065C102.822 16.9717 104.491 16.8317 105.961 16.645ZM111.701 31.31C111.701 31.45 111.642 31.555 111.526 31.625C111.409 31.695 111.292 31.73 111.176 31.73H92.8008C91.7041 31.73 90.9808 31.52 90.6308 31.1C90.3041 30.68 90.1408 29.9917 90.1408 29.035V22.98C90.1408 22.6533 90.3041 22.49 90.6308 22.49H92.0658C92.3924 22.49 92.5558 22.6533 92.5558 22.98V28.895C92.5558 29.2217 92.6024 29.42 92.6958 29.49C92.8124 29.5833 93.0341 29.63 93.3608 29.63H111.176C111.292 29.63 111.409 29.665 111.526 29.735C111.642 29.8283 111.701 29.9333 111.701 30.05V31.31ZM87.0258 2.715C87.0258 2.575 87.0841 2.47 87.2008 2.4C87.3174 2.33 87.4341 2.295 87.5508 2.295H100.326C100.886 2.295 101.329 2.35333 101.656 2.47C102.006 2.58667 102.274 2.76167 102.461 2.995C102.647 3.205 102.776 3.485 102.846 3.835C102.916 4.185 102.962 4.605 102.986 5.095C103.032 6.285 102.974 7.59167 102.811 9.015C102.647 10.4383 102.379 11.85 102.006 13.25C101.959 13.39 101.889 13.5183 101.796 13.635C101.726 13.7517 101.621 13.7983 101.481 13.775L100.081 13.67C99.6841 13.6467 99.5441 13.4367 99.6608 13.04C100.011 11.8733 100.267 10.625 100.431 9.295C100.594 7.965 100.652 6.57667 100.606 5.13C100.582 4.80333 100.524 4.605 100.431 4.535C100.337 4.44167 100.127 4.395 99.8008 4.395H87.5508C87.4341 4.395 87.3174 4.36 87.2008 4.29C87.0841 4.19667 87.0258 4.09167 87.0258 3.975V2.715ZM124.281 22.98C124.281 22 124.467 21.3467 124.841 21.02C125.214 20.67 125.914 20.495 126.941 20.495H141.606C142.166 20.495 142.609 20.53 142.936 20.6C143.286 20.67 143.554 20.7983 143.741 20.985C143.951 21.1717 144.091 21.4283 144.161 21.755C144.231 22.0817 144.266 22.49 144.266 22.98V29.595C144.266 30.575 144.079 31.2283 143.706 31.555C143.332 31.905 142.632 32.08 141.606 32.08H126.941C126.381 32.08 125.926 32.045 125.576 31.975C125.249 31.905 124.981 31.765 124.771 31.555C124.584 31.3683 124.456 31.1117 124.386 30.785C124.316 30.4817 124.281 30.085 124.281 29.595V22.98ZM127.536 22.595C127.209 22.595 126.987 22.665 126.871 22.805C126.754 22.9217 126.696 23.155 126.696 23.505V29.07C126.696 29.42 126.754 29.6533 126.871 29.77C126.987 29.91 127.209 29.98 127.536 29.98H141.011C141.337 29.98 141.559 29.91 141.676 29.77C141.792 29.6533 141.851 29.42 141.851 29.07V23.505C141.851 23.155 141.792 22.9217 141.676 22.805C141.559 22.665 141.337 22.595 141.011 22.595H127.536ZM129.146 1.35C129.146 3.05333 128.971 4.64 128.621 6.11C128.901 7.09 129.286 8.02333 129.776 8.91C130.289 9.79667 130.884 10.625 131.561 11.395C132.237 12.165 132.972 12.865 133.766 13.495C134.582 14.1017 135.434 14.615 136.321 15.035C136.461 15.105 136.519 15.21 136.496 15.35C136.496 15.4667 136.472 15.5717 136.426 15.665L135.691 16.82C135.621 16.9367 135.539 17.0183 135.446 17.065C135.352 17.1117 135.201 17.0767 134.991 16.96C134.454 16.68 133.836 16.3067 133.136 15.84C132.459 15.35 131.771 14.7783 131.071 14.125C130.371 13.4717 129.706 12.76 129.076 11.99C128.446 11.1967 127.921 10.38 127.501 9.54C126.731 11.3133 125.692 12.9233 124.386 14.37C123.079 15.8167 121.551 17.1117 119.801 18.255C119.684 18.325 119.556 18.3717 119.416 18.395C119.276 18.4183 119.159 18.3717 119.066 18.255L118.191 17.1C118.121 17.0067 118.109 16.89 118.156 16.75C118.202 16.61 118.284 16.505 118.401 16.435C121.177 14.7317 123.266 12.585 124.666 9.995C126.066 7.405 126.742 4.51167 126.696 1.315C126.696 0.941666 126.836 0.754999 127.116 0.754999L128.761 0.859999C129.017 0.859999 129.146 1.02333 129.146 1.35ZM141.851 7.895V0.579999C141.851 0.253332 142.014 0.0899988 142.341 0.0899988H143.776C144.102 0.0899988 144.266 0.253332 144.266 0.579999V17.975C144.266 18.3017 144.102 18.465 143.776 18.465H142.341C142.014 18.465 141.851 18.3017 141.851 17.975V9.995H134.711C134.407 9.995 134.256 9.855 134.256 9.575V8.315C134.256 8.035 134.407 7.895 134.711 7.895H141.851ZM186.99 16.61C186.99 16.9367 186.827 17.1 186.5 17.1H185.065C184.739 17.1 184.575 16.9367 184.575 16.61V13.145H176.525C175.779 14.055 174.845 14.7783 173.725 15.315C172.605 15.8283 171.38 16.085 170.05 16.085C168.93 16.085 167.88 15.8983 166.9 15.525C165.944 15.1283 165.104 14.5917 164.38 13.915C163.657 13.2383 163.085 12.445 162.665 11.535C162.245 10.6017 162.035 9.58667 162.035 8.49C162.035 7.32333 162.245 6.27333 162.665 5.34C163.085 4.40667 163.657 3.61333 164.38 2.96C165.104 2.28333 165.944 1.77 166.9 1.42C167.88 1.04667 168.93 0.859999 170.05 0.859999C171.474 0.859999 172.815 1.18667 174.075 1.84C175.335 2.47 176.339 3.36833 177.085 4.535H184.575V0.579999C184.575 0.253332 184.739 0.0899988 185.065 0.0899988H186.5C186.827 0.0899988 186.99 0.253332 186.99 0.579999V16.61ZM187.725 32.045C187.725 32.1617 187.667 32.255 187.55 32.325C187.457 32.4183 187.364 32.465 187.27 32.465H169.665C168.569 32.465 167.845 32.255 167.495 31.835C167.169 31.4383 167.005 30.75 167.005 29.77V27.145C167.005 26.165 167.204 25.5117 167.6 25.185C168.02 24.835 168.755 24.66 169.805 24.66H183.805C184.132 24.66 184.342 24.6133 184.435 24.52C184.529 24.4267 184.575 24.205 184.575 23.855V21.86C184.575 21.51 184.529 21.2883 184.435 21.195C184.365 21.1017 184.167 21.055 183.84 21.055H167.425C167.309 21.055 167.192 21.02 167.075 20.95C166.982 20.88 166.935 20.7867 166.935 20.67V19.41C166.935 19.2933 166.982 19.2 167.075 19.13C167.192 19.06 167.309 19.025 167.425 19.025H184.225C184.785 19.025 185.24 19.0717 185.59 19.165C185.94 19.235 186.22 19.3633 186.43 19.55C186.64 19.7367 186.78 20.005 186.85 20.355C186.944 20.6817 186.99 21.09 186.99 21.58V24.205C186.99 25.185 186.78 25.85 186.36 26.2C185.964 26.5267 185.24 26.69 184.19 26.69H170.155C169.829 26.69 169.619 26.7367 169.525 26.83C169.455 26.9233 169.42 27.145 169.42 27.495V29.63C169.42 29.9567 169.467 30.1667 169.56 30.26C169.654 30.3767 169.864 30.435 170.19 30.435H187.235C187.352 30.435 187.457 30.47 187.55 30.54C187.667 30.61 187.725 30.7033 187.725 30.82V32.045ZM175.755 8.455C175.755 7.615 175.592 6.86833 175.265 6.215C174.962 5.53833 174.542 4.97833 174.005 4.535C173.492 4.06833 172.885 3.71833 172.185 3.485C171.509 3.22833 170.797 3.1 170.05 3.1C169.28 3.1 168.557 3.21667 167.88 3.45C167.204 3.68333 166.609 4.03333 166.095 4.5C165.605 4.94333 165.209 5.50333 164.905 6.18C164.625 6.83333 164.485 7.59167 164.485 8.455C164.485 9.27167 164.625 10.0183 164.905 10.695C165.185 11.3483 165.57 11.92 166.06 12.41C166.55 12.8767 167.134 13.2383 167.81 13.495C168.487 13.7517 169.234 13.88 170.05 13.88C170.797 13.88 171.509 13.7517 172.185 13.495C172.885 13.2383 173.492 12.8767 174.005 12.41C174.542 11.9433 174.962 11.3717 175.265 10.695C175.592 10.0183 175.755 9.27167 175.755 8.455ZM178.205 8.49C178.205 9.37667 178.042 10.24 177.715 11.08H184.575V6.6H177.96C178.124 7.16 178.205 7.79 178.205 8.49ZM219.905 31.87C219.905 32.1967 219.742 32.36 219.415 32.36H217.98C217.654 32.36 217.49 32.1967 217.49 31.87V0.579999C217.49 0.253332 217.654 0.0899988 217.98 0.0899988H219.415C219.742 0.0899988 219.905 0.253332 219.905 0.579999V31.87ZM210.525 5.235C210.409 7.24167 210.012 9.21333 209.335 11.15C208.659 13.0867 207.714 14.9417 206.5 16.715C205.31 18.465 203.864 20.0983 202.16 21.615C200.48 23.1083 198.567 24.4267 196.42 25.57C196.117 25.7333 195.895 25.6983 195.755 25.465L194.985 24.24C194.822 23.96 194.869 23.7617 195.125 23.645C197.109 22.6183 198.859 21.4517 200.375 20.145C201.915 18.815 203.222 17.38 204.295 15.84C205.392 14.3 206.255 12.6783 206.885 10.975C207.515 9.27167 207.912 7.52167 208.075 5.725C208.122 5.375 208.075 5.14167 207.935 5.025C207.795 4.885 207.562 4.815 207.235 4.815H196.105C195.825 4.815 195.685 4.66333 195.685 4.36V3.135C195.685 2.855 195.825 2.715 196.105 2.715H207.9C208.997 2.715 209.72 2.925 210.07 3.345C210.42 3.74167 210.572 4.37167 210.525 5.235Z" fill="black"/>
</svg>
