<svg width="401" height="63" viewBox="0 0 401 63" fill="none" xmlns="http://www.w3.org/2000/svg">
<path d="M42.9191 54.9773C43.2391 54.8706 43.5325 54.8706 43.7991 54.9773C44.0658 55.0306 44.1991 55.2173 44.1991 55.5373L44.3591 58.6573C44.4125 59.3506 44.0391 59.8306 43.2391 60.0973C41.4791 60.684 39.6658 61.1106 37.7991 61.3773C35.9325 61.644 33.5858 61.7773 30.7591 61.7773C21.4791 61.7773 14.0925 58.9506 8.59912 53.2973C5.87912 50.524 3.85245 47.2973 2.51912 43.6173C1.23912 39.9373 0.599121 35.7773 0.599121 31.1373C0.599121 22.0173 3.34579 14.6306 8.83912 8.97731C14.4391 3.32398 21.7458 0.497313 30.7591 0.497313C32.0391 0.497313 33.1858 0.52398 34.1991 0.577312C35.2658 0.630645 36.2791 0.710644 37.2391 0.817309C38.2525 0.923978 39.2391 1.05731 40.1991 1.21731C41.1591 1.37731 42.1725 1.59064 43.2391 1.85731C44.0391 2.01731 44.4125 2.52398 44.3591 3.37731L44.1991 6.57731C44.0925 7.32398 43.6925 7.56398 42.9991 7.29731C40.9191 6.60398 38.9458 6.15064 37.0791 5.93731C35.2125 5.67064 33.1058 5.53731 30.7591 5.53731C23.2391 5.53731 17.2391 7.93731 12.7591 12.7373C8.59912 17.3773 6.51912 23.5106 6.51912 31.1373C6.51912 34.9773 7.02579 38.444 8.03912 41.5373C9.05245 44.6306 10.5991 47.324 12.6791 49.6173C16.9991 54.4173 23.0258 56.7906 30.7591 56.7373C32.9991 56.684 35.2125 56.524 37.3991 56.2573C39.6391 55.9906 41.4791 55.564 42.9191 54.9773Z" fill="black"/>
<path d="M100.749 31.1373C100.749 27.7773 100.322 24.604 99.4691 21.6173C98.6158 18.6306 97.4158 15.9373 95.8691 13.5373C94.0025 10.924 91.7625 8.92398 89.1491 7.53731C86.5891 6.09731 83.6825 5.37731 80.4291 5.37731C77.1225 5.37731 74.1625 6.09731 71.5491 7.53731C68.9891 8.92398 66.7758 10.924 64.9091 13.5373C63.3625 15.9373 62.1625 18.6306 61.3091 21.6173C60.4558 24.604 60.0291 27.7773 60.0291 31.1373C60.0291 34.4973 60.4558 37.6973 61.3091 40.7373C62.1625 43.724 63.3625 46.4173 64.9091 48.8173C66.8291 51.3773 69.0958 53.3773 71.7091 54.8173C74.3225 56.2573 77.2291 56.9773 80.4291 56.9773C83.6825 56.9773 86.5891 56.284 89.1491 54.8973C91.7625 53.4573 94.0025 51.4306 95.8691 48.8173C97.4158 46.4173 98.6158 43.724 99.4691 40.7373C100.322 37.6973 100.749 34.4973 100.749 31.1373ZM106.589 31.1373C106.482 40.6306 104.296 48.044 100.029 53.3773C95.3891 59.1373 88.8558 62.0173 80.4291 62.0173C72.0025 62.0173 65.4425 59.1373 60.7491 53.3773C56.3758 47.884 54.1891 40.4706 54.1891 31.1373C54.1891 26.7106 54.7225 22.7106 55.7891 19.1373C56.8558 15.564 58.4025 12.3906 60.4291 9.61731C62.8291 6.68398 65.7091 4.41731 69.0691 2.81731C72.4825 1.16398 76.2691 0.337311 80.4291 0.337311C84.6425 0.337311 88.4025 1.13731 91.7091 2.73731C95.0691 4.33731 97.9491 6.65731 100.349 9.69731C102.429 12.5773 104.002 15.804 105.069 19.3773C106.136 22.8973 106.642 26.8173 106.589 31.1373Z" fill="black"/>
<path d="M124.838 59.6173C124.838 60.364 124.465 60.7373 123.718 60.7373H120.118C119.371 60.7373 118.998 60.364 118.998 59.6173V3.61731C118.998 2.49731 119.078 1.85731 119.238 1.69731C119.451 1.48398 120.118 1.37731 121.238 1.37731H124.918C125.611 1.37731 126.065 1.45731 126.278 1.61731C126.545 1.72398 126.811 2.01731 127.078 2.49731L157.238 54.2573V2.49731C157.238 1.75064 157.611 1.37731 158.358 1.37731H161.878C162.625 1.37731 162.998 1.75064 162.998 2.49731V58.4973C162.998 59.6173 162.891 60.284 162.678 60.4973C162.518 60.6573 161.878 60.7373 160.758 60.7373H155.878C155.451 60.7373 155.131 60.684 154.918 60.5773C154.758 60.4706 154.545 60.204 154.278 59.7773L124.838 8.89731V59.6173Z" fill="black"/>
<path d="M194.963 6.49731V59.6173C194.963 60.364 194.59 60.7373 193.843 60.7373H190.163C189.416 60.7373 189.043 60.364 189.043 59.6173V6.49731H172.563C171.816 6.49731 171.443 6.12398 171.443 5.37731V2.65731C171.443 1.91064 171.816 1.53731 172.563 1.53731H211.603C212.35 1.53731 212.723 1.91064 212.723 2.65731V5.37731C212.723 6.12398 212.35 6.49731 211.603 6.49731H194.963Z" fill="black"/>
<path d="M223.757 60.8173C222.637 60.8173 221.97 60.7373 221.757 60.5773C221.597 60.364 221.517 59.6973 221.517 58.5773V3.45731C221.517 2.44398 221.597 1.85731 221.757 1.69731C221.97 1.48398 222.583 1.37731 223.597 1.37731H251.357C252.103 1.37731 252.477 1.75064 252.477 2.49731V5.29731C252.477 6.04398 252.103 6.41731 251.357 6.41731H227.357V27.5373H250.157C250.903 27.5373 251.277 27.9106 251.277 28.6573V31.5373C251.277 32.284 250.903 32.6573 250.157 32.6573H227.357V55.6973H252.317C253.063 55.6973 253.437 56.0706 253.437 56.8173V59.6973C253.437 60.444 253.063 60.8173 252.317 60.8173H223.757Z" fill="black"/>
<path d="M272.65 59.6173C272.65 60.364 272.277 60.7373 271.53 60.7373H267.93C267.184 60.7373 266.81 60.364 266.81 59.6173V3.61731C266.81 2.49731 266.89 1.85731 267.05 1.69731C267.264 1.48398 267.93 1.37731 269.05 1.37731H272.73C273.424 1.37731 273.877 1.45731 274.09 1.61731C274.357 1.72398 274.624 2.01731 274.89 2.49731L305.05 54.2573V2.49731C305.05 1.75064 305.424 1.37731 306.17 1.37731H309.69C310.437 1.37731 310.81 1.75064 310.81 2.49731V58.4973C310.81 59.6173 310.704 60.284 310.49 60.4973C310.33 60.6573 309.69 60.7373 308.57 60.7373H303.69C303.264 60.7373 302.944 60.684 302.73 60.5773C302.57 60.4706 302.357 60.204 302.09 59.7773L272.65 8.89731V59.6173Z" fill="black"/>
<path d="M342.775 6.49731V59.6173C342.775 60.364 342.402 60.7373 341.655 60.7373H337.975C337.229 60.7373 336.855 60.364 336.855 59.6173V6.49731H320.375C319.629 6.49731 319.255 6.12398 319.255 5.37731V2.65731C319.255 1.91064 319.629 1.53731 320.375 1.53731H359.415C360.162 1.53731 360.535 1.91064 360.535 2.65731V5.37731C360.535 6.12398 360.162 6.49731 359.415 6.49731H342.775Z" fill="black"/>
<path d="M368.129 59.9373C367.276 59.6707 366.929 59.1906 367.089 58.4973L367.409 54.8173C367.516 54.3906 367.676 54.0973 367.889 53.9373C368.156 53.7773 368.449 53.804 368.769 54.0173C370.636 55.0306 372.502 55.7773 374.369 56.2573C376.289 56.684 378.476 56.8973 380.929 56.8973C384.822 56.8973 387.996 55.8306 390.449 53.6973C392.956 51.564 394.209 48.5506 394.209 44.6573C394.209 43.1106 393.596 41.564 392.369 40.0173C391.196 38.4706 389.542 37.004 387.409 35.6173C385.542 34.444 383.436 33.2173 381.089 31.9373C378.742 30.6573 376.502 29.2706 374.369 27.7773C372.236 26.2306 370.449 24.524 369.009 22.6573C367.569 20.7373 366.849 18.524 366.849 16.0173C366.849 13.4573 367.382 11.2173 368.449 9.29731C369.516 7.32398 370.929 5.69731 372.689 4.41731C374.502 3.08398 376.556 2.07065 378.849 1.37731C381.142 0.683978 383.489 0.337311 385.889 0.337311C387.969 0.337311 389.809 0.470644 391.409 0.73731C393.009 0.950644 394.742 1.35064 396.609 1.93731C397.409 2.20398 397.729 2.68398 397.569 3.37731L396.929 6.49731C396.769 7.40398 396.316 7.64398 395.569 7.21731C394.076 6.52398 392.609 6.07065 391.169 5.85731C389.782 5.59064 387.996 5.45731 385.809 5.45731C384.049 5.45731 382.369 5.67065 380.769 6.09731C379.222 6.52398 377.862 7.16398 376.689 8.01731C375.569 8.87064 374.662 9.93731 373.969 11.2173C373.276 12.4973 372.929 14.0173 372.929 15.7773C372.929 17.164 373.382 18.4706 374.289 19.6973C375.249 20.924 376.396 22.0706 377.729 23.1373C379.116 24.204 380.582 25.1906 382.129 26.0973C383.729 26.9506 385.169 27.7506 386.449 28.4973C388.209 29.5106 389.916 30.5506 391.569 31.6173C393.222 32.684 394.689 33.884 395.969 35.2173C397.249 36.5506 398.289 38.0173 399.089 39.6173C399.889 41.2173 400.289 43.0573 400.289 45.1373C400.289 47.804 399.729 50.1773 398.609 52.2573C397.542 54.3373 396.102 56.0973 394.289 57.5373C392.476 58.9773 390.369 60.0706 387.969 60.8173C385.622 61.6173 383.169 62.0173 380.609 62.0173C378.262 62.0173 376.156 61.8573 374.289 61.5373C372.476 61.2173 370.422 60.684 368.129 59.9373Z" fill="black"/>
</svg>
