<svg width="329" height="33" viewBox="0 0 329 33" fill="none" xmlns="http://www.w3.org/2000/svg">
<path d="M14.765 16.015C14.765 8.68833 12.7583 5.025 8.745 5.025C4.73167 5.025 2.725 8.68833 2.725 16.015C2.725 23.365 4.73167 27.04 8.745 27.04C12.7583 27.04 14.765 23.365 14.765 16.015ZM17.285 16.015C17.285 24.835 14.4383 29.245 8.745 29.245C3.005 29.245 0.135 24.835 0.135 16.015C0.135 12.3517 0.695 9.37667 1.815 7.09C3.23833 4.22 5.54833 2.785 8.745 2.785C11.895 2.785 14.1933 4.22 15.64 7.09C16.1767 8.23333 16.585 9.54 16.865 11.01C17.145 12.48 17.285 14.1483 17.285 16.015ZM21.9206 28.51C21.5706 28.4167 21.4189 28.1483 21.4656 27.705L21.6056 26.34C21.6523 26.06 21.8389 25.99 22.1656 26.13C23.1456 26.5267 24.0673 26.8067 24.9306 26.97C25.8173 27.1333 26.8439 27.2267 28.0106 27.25C29.8539 27.2733 31.4056 26.8067 32.6656 25.85C34.1356 24.87 34.8706 23.435 34.8706 21.545C34.8706 18.2317 32.3856 16.575 27.4156 16.575H25.5956C25.2923 16.575 25.1406 16.4467 25.1406 16.19V14.895C25.1406 14.5917 25.2923 14.44 25.5956 14.44H25.7706C28.2673 14.44 30.2156 14.1717 31.6156 13.635C33.7389 12.8183 34.8006 11.3483 34.8006 9.225C34.8006 8.54833 34.6139 7.93 34.2406 7.37C33.8906 6.78667 33.4123 6.29667 32.8056 5.9C32.2456 5.57333 31.6156 5.31667 30.9156 5.13C30.2156 4.94333 29.4806 4.85 28.7106 4.85C27.9173 4.85 27.0423 4.955 26.0856 5.165C25.1289 5.375 24.2073 5.655 23.3206 6.005C23.0173 6.12167 22.8423 6.02833 22.7956 5.725L22.6556 4.43C22.5856 4.10333 22.7373 3.87 23.1106 3.73C24.1606 3.38 25.1406 3.12333 26.0506 2.96C26.9606 2.79667 27.9289 2.715 28.9556 2.715C31.3123 2.715 33.2373 3.21667 34.7306 4.22C36.4339 5.36333 37.2856 7.03167 37.2856 9.225C37.2856 10.7883 36.7256 12.1417 35.6056 13.285C34.6723 14.2883 33.4589 15.0233 31.9656 15.49C32.7123 15.5833 33.4006 15.7817 34.0306 16.085C34.6839 16.3883 35.2439 16.8083 35.7106 17.345C36.2473 17.9283 36.6556 18.5933 36.9356 19.34C37.2156 20.0633 37.3556 20.8683 37.3556 21.755C37.3556 22.9217 37.1106 23.9833 36.6206 24.94C36.1539 25.8733 35.4773 26.6783 34.5906 27.355C33.7273 27.985 32.7356 28.4867 31.6156 28.86C30.4956 29.21 29.2473 29.3733 27.8706 29.35C26.6339 29.3267 25.5606 29.2567 24.6506 29.14C23.7639 29.0233 22.8539 28.8133 21.9206 28.51Z" fill="#EE7272"/>
<path d="M72.2407 21.055C72.2874 21.3817 72.1357 21.58 71.7857 21.65C70.9224 21.86 69.8257 22.0583 68.4957 22.245C67.1891 22.4317 65.8007 22.595 64.3307 22.735C62.8841 22.875 61.4491 22.98 60.0257 23.05C58.6024 23.12 57.3657 23.1433 56.3157 23.12C55.2657 23.0967 54.5424 22.8517 54.1457 22.385C53.7724 21.9183 53.5857 21.195 53.5857 20.215V5.165C53.5857 4.185 53.7724 3.53166 54.1457 3.205C54.5191 2.87833 55.2191 2.715 56.2457 2.715H68.2857C68.5891 2.715 68.7407 2.855 68.7407 3.135V4.395C68.7407 4.675 68.5891 4.815 68.2857 4.815H56.7007C56.3741 4.815 56.1757 4.86167 56.1057 4.955C56.0357 5.025 56.0007 5.235 56.0007 5.585V20.04C56.0007 20.39 56.0591 20.6233 56.1757 20.74C56.2924 20.8567 56.5141 20.9267 56.8407 20.95C57.9607 20.9967 59.1391 20.9967 60.3757 20.95C61.6357 20.88 62.8957 20.7867 64.1557 20.67C65.4391 20.53 66.6874 20.3783 67.9007 20.215C69.1374 20.0283 70.3041 19.83 71.4007 19.62C71.7741 19.55 71.9957 19.6783 72.0657 20.005L72.2407 21.055ZM77.2107 31.87C77.2107 32.1967 77.0474 32.36 76.7207 32.36H75.2857C74.9591 32.36 74.7957 32.1967 74.7957 31.87V0.579999C74.7957 0.253332 74.9591 0.0899988 75.2857 0.0899988H76.7207C77.0474 0.0899988 77.2107 0.253332 77.2107 0.579999V13.32H82.0407C82.1807 13.32 82.2974 13.3667 82.3907 13.46C82.5074 13.53 82.5657 13.635 82.5657 13.775V14.965C82.5657 15.0817 82.5074 15.1867 82.3907 15.28C82.2974 15.3733 82.1807 15.42 82.0407 15.42H77.2107V31.87ZM99.6258 13.075C98.5058 13.075 97.3041 12.9933 96.0208 12.83C94.7608 12.6433 93.5824 12.3167 92.4858 11.85C91.4124 11.3833 90.5141 10.7417 89.7908 9.925C89.0908 9.10833 88.7408 8.07 88.7408 6.81C88.7408 5.55 89.0908 4.52333 89.7908 3.73C90.5141 2.91333 91.4124 2.27167 92.4858 1.805C93.5824 1.33833 94.7608 1.02333 96.0208 0.859999C97.3041 0.673332 98.5058 0.579999 99.6258 0.579999C100.769 0.579999 101.982 0.684999 103.266 0.894999C104.549 1.105 105.727 1.455 106.801 1.945C107.874 2.435 108.761 3.07667 109.461 3.87C110.161 4.66333 110.511 5.64333 110.511 6.81C110.511 8 110.149 8.99167 109.426 9.785C108.726 10.5783 107.839 11.22 106.766 11.71C105.692 12.2 104.514 12.55 103.231 12.76C101.971 12.97 100.769 13.075 99.6258 13.075ZM99.6258 2.75C98.8558 2.75 97.9808 2.80833 97.0008 2.925C96.0441 3.01833 95.1458 3.21666 94.3058 3.52C93.4658 3.82333 92.7541 4.24333 92.1708 4.78C91.5874 5.29333 91.2958 5.98167 91.2958 6.845C91.2958 7.70833 91.5874 8.40833 92.1708 8.945C92.7541 9.48167 93.4658 9.90167 94.3058 10.205C95.1458 10.485 96.0441 10.6833 97.0008 10.8C97.9808 10.8933 98.8558 10.94 99.6258 10.94C100.396 10.94 101.259 10.8933 102.216 10.8C103.172 10.6833 104.071 10.485 104.911 10.205C105.774 9.90167 106.497 9.48167 107.081 8.945C107.664 8.40833 107.956 7.70833 107.956 6.845C107.956 5.98167 107.664 5.29333 107.081 4.78C106.497 4.24333 105.774 3.82333 104.911 3.52C104.071 3.21666 103.161 3.01833 102.181 2.925C101.224 2.80833 100.372 2.75 99.6258 2.75ZM99.1008 25.745C98.9841 25.745 98.8791 25.6983 98.7858 25.605C98.6924 25.4883 98.6458 25.36 98.6458 25.22V18.08H84.7508C84.6108 18.08 84.4824 18.0333 84.3658 17.94C84.2724 17.8467 84.2258 17.7417 84.2258 17.625V16.435C84.2258 16.295 84.2724 16.19 84.3658 16.12C84.4824 16.0267 84.6108 15.98 84.7508 15.98H114.501C114.617 15.98 114.734 16.0267 114.851 16.12C114.967 16.19 115.026 16.295 115.026 16.435V17.625C115.026 17.7417 114.967 17.8467 114.851 17.94C114.734 18.0333 114.617 18.08 114.501 18.08H101.061V25.22C101.061 25.36 101.014 25.4883 100.921 25.605C100.851 25.6983 100.746 25.745 100.606 25.745H99.1008ZM111.246 31.31C111.246 31.45 111.187 31.555 111.071 31.625C110.954 31.695 110.837 31.73 110.721 31.73H91.4358C90.3391 31.73 89.6158 31.4967 89.2658 31.03C88.9391 30.5867 88.7758 29.8867 88.7758 28.93V21.965C88.7758 21.6383 88.9391 21.475 89.2658 21.475H90.7008C91.0274 21.475 91.1908 21.6383 91.1908 21.965V28.895C91.1908 29.2217 91.2374 29.42 91.3308 29.49C91.4474 29.5833 91.6691 29.63 91.9958 29.63H110.721C110.837 29.63 110.954 29.665 111.071 29.735C111.187 29.8283 111.246 29.9333 111.246 30.05V31.31ZM122.426 16.68C121.866 16.68 121.411 16.645 121.061 16.575C120.734 16.505 120.477 16.3767 120.291 16.19C120.104 15.98 119.976 15.7233 119.906 15.42C119.836 15.0933 119.801 14.685 119.801 14.195V1.595C119.801 1.47833 119.847 1.385 119.941 1.315C120.034 1.22167 120.139 1.175 120.256 1.175H121.761C121.877 1.175 121.971 1.22167 122.041 1.315C122.134 1.40833 122.181 1.50166 122.181 1.595V7.055H132.366V1.63C132.366 1.51333 132.401 1.40833 132.471 1.315C132.564 1.22167 132.669 1.175 132.786 1.175H134.291C134.407 1.175 134.512 1.22167 134.606 1.315C134.699 1.385 134.746 1.47833 134.746 1.595V14.44C134.746 15.3267 134.559 15.9217 134.186 16.225C133.812 16.5283 133.112 16.68 132.086 16.68H122.426ZM143.811 31.59C143.811 31.9167 143.659 32.08 143.356 32.08H126.066C125.039 32.08 124.339 31.905 123.966 31.555C123.592 31.2283 123.406 30.575 123.406 29.595V22.98C123.406 22 123.592 21.3467 123.966 21.02C124.339 20.67 125.039 20.495 126.066 20.495H142.761C143.064 20.495 143.216 20.6467 143.216 20.95V22.105C143.216 22.4317 143.064 22.595 142.761 22.595H126.696C126.369 22.595 126.147 22.665 126.031 22.805C125.914 22.9217 125.856 23.155 125.856 23.505V29.07C125.856 29.3967 125.914 29.63 126.031 29.77C126.147 29.91 126.369 29.98 126.696 29.98H143.356C143.659 29.98 143.811 30.1317 143.811 30.435V31.59ZM122.181 9.12V13.775C122.181 14.125 122.239 14.3583 122.356 14.475C122.472 14.5683 122.694 14.615 123.021 14.615H131.526C131.852 14.615 132.074 14.5683 132.191 14.475C132.307 14.3583 132.366 14.125 132.366 13.775V9.12H122.181ZM143.041 17.975C143.041 18.3017 142.877 18.465 142.551 18.465H141.116C140.789 18.465 140.626 18.3017 140.626 17.975V0.579999C140.626 0.253332 140.789 0.0899988 141.116 0.0899988H142.551C142.877 0.0899988 143.041 0.253332 143.041 0.579999V8.455H147.871C148.011 8.455 148.127 8.50167 148.221 8.595C148.337 8.665 148.396 8.77 148.396 8.91V10.1C148.396 10.2167 148.337 10.3217 148.221 10.415C148.127 10.5083 148.011 10.555 147.871 10.555H143.041V17.975ZM180.331 16.4C180.448 16.4 180.564 16.4467 180.681 16.54C180.798 16.61 180.856 16.715 180.856 16.855V18.045C180.856 18.1617 180.798 18.2667 180.681 18.36C180.564 18.4533 180.448 18.5 180.331 18.5H150.581C150.441 18.5 150.313 18.4533 150.196 18.36C150.103 18.2667 150.056 18.1617 150.056 18.045V16.855C150.056 16.715 150.103 16.61 150.196 16.54C150.313 16.4467 150.441 16.4 150.581 16.4H180.331ZM165.456 13.11C164.336 13.11 163.134 13.005 161.851 12.795C160.591 12.585 159.413 12.235 158.316 11.745C157.243 11.255 156.344 10.6133 155.621 9.82C154.921 9.00333 154.571 8 154.571 6.81C154.571 5.55 154.921 4.52333 155.621 3.73C156.344 2.91333 157.243 2.27167 158.316 1.805C159.413 1.33833 160.591 1.02333 161.851 0.859999C163.134 0.673332 164.336 0.579999 165.456 0.579999C166.599 0.579999 167.813 0.684999 169.096 0.894999C170.379 1.105 171.558 1.455 172.631 1.945C173.704 2.41167 174.591 3.04167 175.291 3.835C175.991 4.62833 176.341 5.62 176.341 6.81C176.341 8 175.991 9.00333 175.291 9.82C174.591 10.6133 173.704 11.255 172.631 11.745C171.558 12.235 170.379 12.585 169.096 12.795C167.813 13.005 166.599 13.11 165.456 13.11ZM165.456 2.75C164.709 2.75 163.858 2.80833 162.901 2.925C161.944 3.01833 161.046 3.21666 160.206 3.52C159.366 3.8 158.654 4.20833 158.071 4.745C157.488 5.28167 157.196 5.98167 157.196 6.845C157.196 7.70833 157.488 8.40833 158.071 8.945C158.654 9.48167 159.366 9.90167 160.206 10.205C161.046 10.485 161.944 10.6833 162.901 10.8C163.858 10.8933 164.709 10.94 165.456 10.94C166.203 10.94 167.054 10.8933 168.011 10.8C168.968 10.6833 169.866 10.485 170.706 10.205C171.546 9.90167 172.258 9.48167 172.841 8.945C173.424 8.40833 173.716 7.70833 173.716 6.845C173.716 5.98167 173.424 5.28167 172.841 4.745C172.258 4.20833 171.546 3.8 170.706 3.52C169.866 3.21666 168.968 3.01833 168.011 2.925C167.054 2.80833 166.203 2.75 165.456 2.75ZM177.076 31.31C177.076 31.45 177.018 31.555 176.901 31.625C176.784 31.695 176.668 31.73 176.551 31.73H157.546C156.449 31.73 155.726 31.4967 155.376 31.03C155.049 30.5867 154.886 29.8867 154.886 28.93V21.79C154.886 21.4633 155.049 21.3 155.376 21.3H156.811C157.138 21.3 157.301 21.4633 157.301 21.79V28.895C157.301 29.2217 157.348 29.42 157.441 29.49C157.558 29.5833 157.779 29.63 158.106 29.63H176.551C176.668 29.63 176.784 29.665 176.901 29.735C177.018 29.8283 177.076 29.9333 177.076 30.05V31.31ZM202.825 32.08C202.265 32.08 201.81 32.045 201.46 31.975C201.134 31.905 200.877 31.765 200.69 31.555C200.504 31.3683 200.375 31.1117 200.305 30.785C200.235 30.4817 200.2 30.085 200.2 29.595V19.76C200.2 19.6433 200.247 19.55 200.34 19.48C200.434 19.41 200.539 19.375 200.655 19.375H202.195C202.312 19.375 202.405 19.4217 202.475 19.515C202.569 19.585 202.615 19.6667 202.615 19.76V23.47H218.645V19.83C218.645 19.7133 218.68 19.6083 218.75 19.515C218.844 19.4217 218.949 19.375 219.065 19.375H220.605C220.722 19.375 220.827 19.4217 220.92 19.515C221.014 19.585 221.06 19.6783 221.06 19.795V29.84C221.06 30.7267 220.874 31.3217 220.5 31.625C220.127 31.9283 219.427 32.08 218.4 32.08H202.825ZM194.565 4.045C194.565 3.065 194.752 2.41166 195.125 2.085C195.499 1.735 196.199 1.56 197.225 1.56H205.205C205.765 1.56 206.209 1.595 206.535 1.665C206.885 1.735 207.154 1.86333 207.34 2.05C207.55 2.23667 207.69 2.49333 207.76 2.82C207.83 3.14667 207.865 3.555 207.865 4.045V13.495C207.865 14.475 207.679 15.14 207.305 15.49C206.932 15.8167 206.232 15.98 205.205 15.98H197.225C196.665 15.98 196.21 15.945 195.86 15.875C195.534 15.805 195.265 15.6767 195.055 15.49C194.869 15.28 194.74 15.0233 194.67 14.72C194.6 14.3933 194.565 13.985 194.565 13.495V4.045ZM214.305 8.49H218.75V0.579999C218.75 0.253332 218.914 0.0899988 219.24 0.0899988H220.57C220.897 0.0899988 221.06 0.253332 221.06 0.579999V17.1C221.06 17.4267 220.897 17.59 220.57 17.59H219.24C218.914 17.59 218.75 17.4267 218.75 17.1V10.59H214.305V16.645C214.305 16.9717 214.142 17.135 213.815 17.135H212.485C212.159 17.135 211.995 16.9717 211.995 16.645V1.175C211.995 0.848333 212.159 0.684999 212.485 0.684999H213.815C214.142 0.684999 214.305 0.848333 214.305 1.175V8.49ZM197.82 3.66C197.494 3.66 197.272 3.73 197.155 3.87C197.039 3.98666 196.98 4.22 196.98 4.57V12.97C196.98 13.32 197.039 13.565 197.155 13.705C197.272 13.8217 197.494 13.88 197.82 13.88H204.61C204.937 13.88 205.159 13.8217 205.275 13.705C205.392 13.565 205.45 13.32 205.45 12.97V4.57C205.45 4.22 205.392 3.98666 205.275 3.87C205.159 3.73 204.937 3.66 204.61 3.66H197.82ZM202.615 25.57V29.14C202.615 29.49 202.674 29.7117 202.79 29.805C202.907 29.9217 203.129 29.98 203.455 29.98H217.805C218.132 29.98 218.354 29.9217 218.47 29.805C218.587 29.7117 218.645 29.49 218.645 29.14V25.57H202.615ZM262 10.66C262 10.9633 261.825 11.115 261.475 11.115H239.915C239.798 11.115 239.682 11.0683 239.565 10.975C239.472 10.8817 239.425 10.765 239.425 10.625V9.54C239.425 9.4 239.472 9.28333 239.565 9.19C239.682 9.09666 239.798 9.05 239.915 9.05H244.22V2.225H240.615C240.498 2.225 240.382 2.17833 240.265 2.085C240.172 1.99166 240.125 1.875 240.125 1.735V0.649998C240.125 0.509998 240.172 0.393332 240.265 0.299998C240.382 0.206665 240.498 0.159998 240.615 0.159998H260.775C261.125 0.159998 261.3 0.311665 261.3 0.614998V1.77C261.3 2.07333 261.125 2.225 260.775 2.225H257.345V9.05H261.475C261.825 9.05 262 9.20166 262 9.505V10.66ZM262.105 31.73C262.105 31.8467 262.047 31.94 261.93 32.01C261.837 32.1033 261.743 32.15 261.65 32.15H243.03C241.933 32.15 241.21 31.94 240.86 31.52C240.533 31.1233 240.37 30.435 240.37 29.455V27.075C240.37 26.095 240.568 25.4417 240.965 25.115C241.385 24.765 242.12 24.59 243.17 24.59H258.22C258.547 24.59 258.757 24.5433 258.85 24.45C258.943 24.3567 258.99 24.135 258.99 23.785V21.965C258.99 21.615 258.943 21.3933 258.85 21.3C258.78 21.2067 258.582 21.16 258.255 21.16H240.79C240.673 21.16 240.557 21.125 240.44 21.055C240.347 20.985 240.3 20.8917 240.3 20.775V19.55C240.3 19.4333 240.347 19.34 240.44 19.27C240.557 19.2 240.673 19.165 240.79 19.165H258.605C259.165 19.165 259.62 19.2117 259.97 19.305C260.32 19.375 260.6 19.5033 260.81 19.69C261.02 19.8767 261.16 20.145 261.23 20.495C261.323 20.8217 261.37 21.23 261.37 21.72V24.1C261.37 25.08 261.16 25.745 260.74 26.095C260.343 26.4217 259.62 26.585 258.57 26.585H243.485C243.158 26.585 242.948 26.6317 242.855 26.725C242.785 26.8183 242.75 27.04 242.75 27.39V29.315C242.75 29.6417 242.797 29.8517 242.89 29.945C242.983 30.0617 243.193 30.12 243.52 30.12H261.615C261.732 30.12 261.837 30.155 261.93 30.225C262.047 30.295 262.105 30.3883 262.105 30.505V31.73ZM265.78 14.23C265.897 14.23 266.013 14.2767 266.13 14.37C266.247 14.44 266.305 14.545 266.305 14.685V15.875C266.305 15.9917 266.247 16.0967 266.13 16.19C266.013 16.2833 265.897 16.33 265.78 16.33H236.03C235.89 16.33 235.762 16.2833 235.645 16.19C235.552 16.0967 235.505 15.9917 235.505 15.875V14.685C235.505 14.545 235.552 14.44 235.645 14.37C235.762 14.2767 235.89 14.23 236.03 14.23H265.78ZM246.6 9.05H254.965V2.225H246.6V9.05ZM272.69 24.135C271.64 24.0883 270.928 23.8783 270.555 23.505C270.205 23.1083 270.03 22.42 270.03 21.44V14.755C270.03 13.775 270.228 13.1217 270.625 12.795C271.045 12.445 271.78 12.27 272.83 12.27H278.64C278.967 12.27 279.177 12.2233 279.27 12.13C279.363 12.0367 279.41 11.815 279.41 11.465V5.865C279.41 5.515 279.363 5.29333 279.27 5.2C279.2 5.10667 279.002 5.06 278.675 5.06H270.66C270.543 5.06 270.427 5.025 270.31 4.955C270.217 4.885 270.17 4.79166 270.17 4.675V3.345C270.17 3.22833 270.217 3.135 270.31 3.065C270.427 2.995 270.543 2.96 270.66 2.96H279.06C279.62 2.96 280.075 3.00667 280.425 3.1C280.775 3.17 281.055 3.29833 281.265 3.485C281.475 3.67167 281.615 3.94 281.685 4.29C281.778 4.61667 281.825 5.025 281.825 5.515V11.885C281.825 12.865 281.615 13.53 281.195 13.88C280.798 14.2067 280.075 14.37 279.025 14.37H273.18C272.853 14.37 272.643 14.4167 272.55 14.51C272.48 14.6033 272.445 14.825 272.445 15.175V21.265C272.445 21.8017 272.702 22.07 273.215 22.07C275.105 22.07 276.983 21.9533 278.85 21.72C280.717 21.4867 282.525 21.1717 284.275 20.775C284.602 20.705 284.8 20.8217 284.87 21.125L285.08 22.315C285.127 22.6183 284.975 22.8167 284.625 22.91C282.642 23.3767 280.647 23.715 278.64 23.925C276.633 24.135 274.65 24.205 272.69 24.135ZM288.195 12.48V1.175C288.195 0.848333 288.358 0.684999 288.685 0.684999H290.015C290.342 0.684999 290.505 0.848333 290.505 1.175V30.54C290.505 30.8667 290.342 31.03 290.015 31.03H288.685C288.358 31.03 288.195 30.8667 288.195 30.54V14.58H283.645C283.342 14.58 283.19 14.44 283.19 14.16V12.9C283.19 12.62 283.342 12.48 283.645 12.48H288.195ZM296.7 31.87C296.7 32.1967 296.537 32.36 296.21 32.36H294.88C294.553 32.36 294.39 32.1967 294.39 31.87V0.579999C294.39 0.253332 294.553 0.0899988 294.88 0.0899988H296.21C296.537 0.0899988 296.7 0.253332 296.7 0.579999V31.87ZM320.27 13.425C320.27 14.7317 320.107 16.05 319.78 17.38C319.477 18.71 318.987 19.9117 318.31 20.985C317.633 22.0583 316.758 22.945 315.685 23.645C314.635 24.3217 313.363 24.66 311.87 24.66C310.33 24.66 309.023 24.3217 307.95 23.645C306.9 22.9683 306.048 22.0933 305.395 21.02C304.765 19.9233 304.31 18.71 304.03 17.38C303.75 16.05 303.61 14.7317 303.61 13.425C303.61 12.0483 303.75 10.695 304.03 9.365C304.31 8.01167 304.765 6.79833 305.395 5.725C306.048 4.65167 306.9 3.78833 307.95 3.135C309.023 2.48167 310.33 2.155 311.87 2.155C313.363 2.155 314.635 2.48167 315.685 3.135C316.758 3.78833 317.633 4.65167 318.31 5.725C318.987 6.775 319.477 7.97667 319.78 9.33C320.107 10.66 320.27 12.025 320.27 13.425ZM317.785 13.39C317.785 12.3167 317.668 11.2317 317.435 10.135C317.225 9.03833 316.887 8.05833 316.42 7.195C315.953 6.30833 315.347 5.59667 314.6 5.06C313.853 4.5 312.943 4.22 311.87 4.22C310.75 4.22 309.817 4.5 309.07 5.06C308.347 5.59667 307.763 6.30833 307.32 7.195C306.877 8.05833 306.562 9.03833 306.375 10.135C306.188 11.2317 306.095 12.3167 306.095 13.39C306.095 14.4167 306.177 15.4783 306.34 16.575C306.527 17.6483 306.842 18.64 307.285 19.55C307.728 20.4367 308.323 21.1717 309.07 21.755C309.817 22.315 310.75 22.595 311.87 22.595C312.943 22.595 313.853 22.315 314.6 21.755C315.347 21.1717 315.953 20.4367 316.42 19.55C316.887 18.64 317.225 17.6483 317.435 16.575C317.668 15.4783 317.785 14.4167 317.785 13.39ZM328.46 31.87C328.46 32.1967 328.297 32.36 327.97 32.36H326.535C326.208 32.36 326.045 32.1967 326.045 31.87V0.579999C326.045 0.253332 326.208 0.0899988 326.535 0.0899988H327.97C328.297 0.0899988 328.46 0.253332 328.46 0.579999V31.87Z" fill="black"/>
</svg>
