<svg width="366" height="33" viewBox="0 0 366 33" fill="none" xmlns="http://www.w3.org/2000/svg">
<path d="M14.765 16.015C14.765 8.68833 12.7583 5.025 8.745 5.025C4.73167 5.025 2.725 8.68833 2.725 16.015C2.725 23.365 4.73167 27.04 8.745 27.04C12.7583 27.04 14.765 23.365 14.765 16.015ZM17.285 16.015C17.285 24.835 14.4383 29.245 8.745 29.245C3.005 29.245 0.135 24.835 0.135 16.015C0.135 12.3517 0.695 9.37667 1.815 7.09C3.23833 4.22 5.54833 2.785 8.745 2.785C11.895 2.785 14.1933 4.22 15.64 7.09C16.1767 8.23333 16.585 9.54 16.865 11.01C17.145 12.48 17.285 14.1483 17.285 16.015ZM22.3756 29.105C22.1189 29.105 21.9206 29.0933 21.7806 29.07C21.6639 29.07 21.5706 29.0467 21.5006 29C21.4539 28.93 21.4189 28.8367 21.3956 28.72C21.3956 28.58 21.3956 28.3817 21.3956 28.125L21.4306 27.355C21.4306 27.0517 21.5239 26.8067 21.7106 26.62L27.4856 20.25C31.7789 15.6067 33.9256 12.0833 33.9256 9.68C33.9256 8.28 33.4589 7.11333 32.5256 6.18C31.6156 5.27 30.4839 4.815 29.1306 4.815C27.2406 4.815 25.2689 5.34 23.2156 6.39C22.8889 6.55333 22.7023 6.48333 22.6556 6.18L22.4456 5.025C22.3756 4.62833 22.4923 4.38333 22.7956 4.29C23.9856 3.75333 25.0589 3.35667 26.0156 3.1C26.9723 2.84333 27.9523 2.715 28.9556 2.715C31.1956 2.715 32.9806 3.275 34.3106 4.395C35.8039 5.60833 36.5506 7.335 36.5506 9.575C36.5506 10.4383 36.3406 11.3833 35.9206 12.41C35.5006 13.4367 34.9173 14.51 34.1706 15.63C33.7039 16.2833 33.0389 17.135 32.1756 18.185C31.3356 19.235 30.3673 20.355 29.2706 21.545C28.4539 22.4317 27.6373 23.33 26.8206 24.24C26.0273 25.15 25.2223 26.0483 24.4056 26.935H36.6556C36.9823 26.935 37.1456 27.0983 37.1456 27.425V28.615C37.1456 28.9417 36.9823 29.105 36.6556 29.105H22.3756Z" fill="#61A0FF"/>
<path d="M77.3507 26.795C77.3507 27.6583 77.0824 28.44 76.5457 29.14C76.0091 29.84 75.2741 30.435 74.3407 30.925C73.4307 31.415 72.3574 31.7883 71.1207 32.045C69.9074 32.325 68.6007 32.465 67.2007 32.465C65.6841 32.465 64.3074 32.325 63.0707 32.045C61.8341 31.7883 60.7724 31.415 59.8857 30.925C58.9991 30.435 58.3107 29.84 57.8207 29.14C57.3307 28.44 57.0857 27.6583 57.0857 26.795C57.0857 25.955 57.3307 25.1967 57.8207 24.52C58.3107 23.82 58.9991 23.225 59.8857 22.735C60.7724 22.245 61.8341 21.8717 63.0707 21.615C64.3074 21.335 65.6841 21.195 67.2007 21.195C68.6007 21.195 69.9074 21.3233 71.1207 21.58C72.3574 21.8367 73.4307 22.21 74.3407 22.7C75.2741 23.19 76.0091 23.785 76.5457 24.485C77.0824 25.1617 77.3507 25.9317 77.3507 26.795ZM74.8657 26.9C74.8657 26.3167 74.6557 25.7917 74.2357 25.325C73.8157 24.8583 73.2441 24.4617 72.5207 24.135C71.8207 23.8083 71.0041 23.5633 70.0707 23.4C69.1374 23.2367 68.1691 23.155 67.1657 23.155C66.0457 23.155 65.0191 23.2367 64.0857 23.4C63.1524 23.5633 62.3474 23.8083 61.6707 24.135C61.0174 24.4617 60.5041 24.8583 60.1307 25.325C59.7574 25.7917 59.5707 26.3167 59.5707 26.9C59.5707 27.4833 59.7574 27.9967 60.1307 28.44C60.5041 28.8833 61.0174 29.2567 61.6707 29.56C62.3474 29.8633 63.1524 30.0967 64.0857 30.26C65.0191 30.4233 66.0457 30.505 67.1657 30.505C68.1691 30.505 69.1374 30.4233 70.0707 30.26C71.0041 30.0967 71.8207 29.8633 72.5207 29.56C73.2441 29.2567 73.8157 28.8833 74.2357 28.44C74.6557 27.9967 74.8657 27.4833 74.8657 26.9ZM70.8057 18.115C70.7357 18.2783 70.6424 18.3833 70.5257 18.43C70.4324 18.4767 70.2807 18.465 70.0707 18.395C68.8107 17.905 67.5624 17.31 66.3257 16.61C65.1124 15.91 63.9457 15.105 62.8257 14.195C61.6357 15.175 60.3057 16.1083 58.8357 16.995C57.3657 17.8817 55.7207 18.71 53.9007 19.48C53.7841 19.5267 53.6674 19.5617 53.5507 19.585C53.4341 19.585 53.3407 19.5267 53.2707 19.41L52.6407 18.15C52.5007 17.9167 52.5824 17.7183 52.8857 17.555C54.5191 16.8083 55.9541 16.085 57.1907 15.385C58.4274 14.6617 59.5357 13.9383 60.5157 13.215C61.4957 12.4683 62.3707 11.6867 63.1407 10.87C63.9341 10.03 64.6807 9.10833 65.3807 8.105C65.5674 7.825 65.5907 7.60333 65.4507 7.44C65.3341 7.27667 65.1124 7.195 64.7857 7.195H54.1807C53.9007 7.195 53.7607 7.04333 53.7607 6.74V5.515C53.7607 5.235 53.9007 5.095 54.1807 5.095H65.7307C66.9441 5.095 67.7607 5.32833 68.1807 5.795C68.6241 6.26167 68.5774 6.985 68.0407 7.965C67.5741 8.805 67.0491 9.62167 66.4657 10.415C65.8824 11.185 65.2174 11.9433 64.4707 12.69C65.5207 13.5067 66.5941 14.23 67.6907 14.86C68.8107 15.4667 69.9191 15.9567 71.0157 16.33C71.3424 16.4467 71.4474 16.6567 71.3307 16.96L70.8057 18.115ZM77.2107 20.04C77.2107 20.3667 77.0474 20.53 76.7207 20.53H75.2857C74.9591 20.53 74.7957 20.3667 74.7957 20.04V0.579999C74.7957 0.253332 74.9591 0.0899988 75.2857 0.0899988H76.7207C77.0474 0.0899988 77.2107 0.253332 77.2107 0.579999V9.995H82.0407C82.1807 9.995 82.2974 10.0417 82.3907 10.135C82.5074 10.205 82.5657 10.31 82.5657 10.45V11.64C82.5657 11.7567 82.5074 11.8617 82.3907 11.955C82.2974 12.0483 82.1807 12.095 82.0407 12.095H77.2107V20.04ZM65.0657 0.614998C65.4157 0.614998 65.5907 0.778332 65.5907 1.105V2.225C65.5907 2.575 65.4157 2.75 65.0657 2.75H57.1557C56.8057 2.75 56.6307 2.575 56.6307 2.225V1.105C56.6307 0.778332 56.8057 0.614998 57.1557 0.614998H65.0657ZM101.026 4.675C100.699 5.585 100.256 6.495 99.6958 7.405C99.1358 8.315 98.4708 9.21333 97.7008 10.1C98.5174 10.94 99.5208 11.745 100.711 12.515C101.924 13.285 103.219 13.9733 104.596 14.58C104.736 14.65 104.794 14.7433 104.771 14.86C104.771 14.9767 104.747 15.0933 104.701 15.21L104.001 16.435C103.931 16.5517 103.849 16.6333 103.756 16.68C103.662 16.7267 103.511 16.6917 103.301 16.575C102.787 16.3417 102.227 16.0617 101.621 15.735C101.037 15.4083 100.431 15.035 99.8008 14.615C99.1708 14.195 98.5408 13.74 97.9108 13.25C97.3041 12.76 96.7324 12.2467 96.1958 11.71C94.8424 13.04 93.3491 14.265 91.7158 15.385C90.1058 16.4817 88.4608 17.4033 86.7808 18.15C86.6641 18.1967 86.5474 18.2317 86.4308 18.255C86.3141 18.2783 86.2208 18.2317 86.1508 18.115L85.4508 16.89C85.3808 16.7733 85.3691 16.6567 85.4158 16.54C85.4858 16.4 85.5791 16.3067 85.6958 16.26C88.7058 14.8133 91.2724 13.1567 93.3958 11.29C95.5191 9.42333 97.1758 7.265 98.3658 4.815C98.5291 4.48833 98.5524 4.255 98.4358 4.115C98.3191 3.975 98.0974 3.905 97.7708 3.905H87.5158C87.2358 3.905 87.0958 3.75333 87.0958 3.45V2.225C87.0958 1.945 87.2591 1.805 87.5858 1.805H98.7158C99.9291 1.805 100.711 2.02667 101.061 2.47C101.411 2.89 101.399 3.625 101.026 4.675ZM89.7208 21.23C89.7208 21.09 89.7791 20.985 89.8958 20.915C90.0124 20.845 90.1291 20.81 90.2458 20.81H107.466C108.026 20.81 108.481 20.845 108.831 20.915C109.181 20.985 109.449 21.125 109.636 21.335C109.822 21.5217 109.951 21.79 110.021 22.14C110.091 22.4667 110.126 22.91 110.126 23.47V32.01C110.126 32.3367 109.962 32.5 109.636 32.5H108.201C107.874 32.5 107.711 32.3367 107.711 32.01V23.645C107.711 23.3183 107.652 23.12 107.536 23.05C107.442 22.9567 107.232 22.91 106.906 22.91H90.2458C90.1291 22.91 90.0124 22.875 89.8958 22.805C89.7791 22.7117 89.7208 22.6067 89.7208 22.49V21.23ZM110.126 18.325C110.126 18.6517 109.962 18.815 109.636 18.815H108.201C107.874 18.815 107.711 18.6517 107.711 18.325V0.579999C107.711 0.253332 107.874 0.0899988 108.201 0.0899988H109.636C109.962 0.0899988 110.126 0.253332 110.126 0.579999V8.91H114.956C115.096 8.91 115.212 8.95667 115.306 9.05C115.422 9.12 115.481 9.225 115.481 9.365V10.555C115.481 10.6717 115.422 10.7767 115.306 10.87C115.212 10.9633 115.096 11.01 114.956 11.01H110.126V18.325ZM119.416 5.2C119.416 4.22 119.602 3.56666 119.976 3.24C120.349 2.89 121.049 2.715 122.076 2.715H132.366C132.926 2.715 133.369 2.75 133.696 2.82C134.046 2.89 134.314 3.01833 134.501 3.205C134.711 3.39167 134.851 3.64833 134.921 3.975C134.991 4.30167 135.026 4.71 135.026 5.2V20.705C135.026 21.685 134.839 22.35 134.466 22.7C134.092 23.0267 133.392 23.19 132.366 23.19H122.076C121.516 23.19 121.061 23.155 120.711 23.085C120.384 23.015 120.116 22.8867 119.906 22.7C119.719 22.49 119.591 22.2333 119.521 21.93C119.451 21.6033 119.416 21.195 119.416 20.705V5.2ZM122.671 4.815C122.344 4.815 122.122 4.885 122.006 5.025C121.889 5.14167 121.831 5.375 121.831 5.725V20.18C121.831 20.53 121.889 20.775 122.006 20.915C122.122 21.0317 122.344 21.09 122.671 21.09H131.771C132.097 21.09 132.319 21.0317 132.436 20.915C132.552 20.775 132.611 20.53 132.611 20.18V5.725C132.611 5.375 132.552 5.14167 132.436 5.025C132.319 4.885 132.097 4.815 131.771 4.815H122.671ZM143.041 31.87C143.041 32.1967 142.877 32.36 142.551 32.36H141.116C140.789 32.36 140.626 32.1967 140.626 31.87V0.579999C140.626 0.253332 140.789 0.0899988 141.116 0.0899988H142.551C142.877 0.0899988 143.041 0.253332 143.041 0.579999V13.32H147.871C148.011 13.32 148.127 13.3667 148.221 13.46C148.337 13.53 148.396 13.635 148.396 13.775V14.965C148.396 15.0817 148.337 15.1867 148.221 15.28C148.127 15.3733 148.011 15.42 147.871 15.42H143.041V31.87ZM176.376 26.095C176.376 27.0983 176.108 27.9967 175.571 28.79C175.034 29.5833 174.299 30.2483 173.366 30.785C172.456 31.345 171.383 31.765 170.146 32.045C168.933 32.3483 167.626 32.5 166.226 32.5C164.709 32.5 163.333 32.3483 162.096 32.045C160.859 31.765 159.798 31.345 158.911 30.785C158.024 30.2483 157.336 29.5833 156.846 28.79C156.356 27.9967 156.111 27.0983 156.111 26.095C156.111 25.115 156.356 24.24 156.846 23.47C157.336 22.6767 158.024 22.0117 158.911 21.475C159.798 20.915 160.859 20.495 162.096 20.215C163.333 19.9117 164.709 19.76 166.226 19.76C167.626 19.76 168.933 19.9117 170.146 20.215C171.383 20.495 172.456 20.9033 173.366 21.44C174.299 21.9767 175.034 22.6417 175.571 23.435C176.108 24.205 176.376 25.0917 176.376 26.095ZM173.891 26.2C173.891 25.5 173.681 24.8817 173.261 24.345C172.841 23.8083 172.269 23.365 171.546 23.015C170.846 22.6417 170.029 22.3617 169.096 22.175C168.163 21.965 167.194 21.86 166.191 21.86C165.071 21.86 164.044 21.965 163.111 22.175C162.178 22.3617 161.373 22.6417 160.696 23.015C160.043 23.365 159.529 23.8083 159.156 24.345C158.783 24.8817 158.596 25.5 158.596 26.2C158.596 26.8767 158.783 27.4833 159.156 28.02C159.529 28.5333 160.043 28.965 160.696 29.315C161.373 29.665 162.178 29.9333 163.111 30.12C164.044 30.3067 165.071 30.4 166.191 30.4C167.194 30.4 168.163 30.3067 169.096 30.12C170.029 29.9333 170.846 29.665 171.546 29.315C172.269 28.965 172.841 28.5333 173.261 28.02C173.681 27.4833 173.891 26.8767 173.891 26.2ZM171.266 14.72C171.336 15.0233 171.196 15.2217 170.846 15.315C170.076 15.5017 169.049 15.6883 167.766 15.875C166.506 16.0617 165.153 16.225 163.706 16.365C162.259 16.505 160.801 16.6217 159.331 16.715C157.884 16.785 156.589 16.8083 155.446 16.785C154.396 16.7617 153.673 16.5167 153.276 16.05C152.903 15.5833 152.716 14.86 152.716 13.88V4.045C152.716 3.065 152.903 2.41166 153.276 2.085C153.649 1.75833 154.349 1.595 155.376 1.595H167.311C167.614 1.595 167.766 1.735 167.766 2.015V3.275C167.766 3.555 167.614 3.695 167.311 3.695H155.831C155.504 3.695 155.306 3.74167 155.236 3.835C155.166 3.905 155.131 4.115 155.131 4.465V13.705C155.131 14.055 155.189 14.3 155.306 14.44C155.423 14.5567 155.644 14.615 155.971 14.615C157.161 14.615 158.386 14.5917 159.646 14.545C160.906 14.475 162.154 14.3817 163.391 14.265C164.628 14.1483 165.841 14.0083 167.031 13.845C168.221 13.6817 169.341 13.495 170.391 13.285C170.624 13.2383 170.776 13.25 170.846 13.32C170.939 13.39 171.009 13.495 171.056 13.635L171.266 14.72ZM175.956 18.955C175.956 19.2817 175.793 19.445 175.466 19.445H174.031C173.704 19.445 173.541 19.2817 173.541 18.955V0.579999C173.541 0.253332 173.704 0.0899988 174.031 0.0899988H175.466C175.793 0.0899988 175.956 0.253332 175.956 0.579999V8.91H180.786C180.926 8.91 181.043 8.95667 181.136 9.05C181.253 9.12 181.311 9.225 181.311 9.365V10.555C181.311 10.6717 181.253 10.7767 181.136 10.87C181.043 10.9633 180.926 11.01 180.786 11.01H175.956V18.955ZM205.056 30.54C205.056 30.8667 204.893 31.03 204.566 31.03H203.236C202.909 31.03 202.746 30.8667 202.746 30.54V14.23H198.791C198.698 15.84 198.441 17.2517 198.021 18.465C197.601 19.655 197.053 20.6583 196.376 21.475C195.699 22.2683 194.918 22.8633 194.031 23.26C193.168 23.6567 192.246 23.855 191.266 23.855C190.216 23.855 189.248 23.6333 188.361 23.19C187.474 22.7233 186.704 22.0467 186.051 21.16C185.398 20.25 184.884 19.1183 184.511 17.765C184.138 16.4117 183.951 14.825 183.951 13.005C183.951 11.185 184.138 9.61 184.511 8.28C184.884 6.92667 185.398 5.80667 186.051 4.92C186.728 4.01 187.509 3.345 188.396 2.925C189.283 2.48166 190.251 2.26 191.301 2.26C192.304 2.26 193.238 2.45833 194.101 2.855C194.988 3.25167 195.769 3.85833 196.446 4.675C197.123 5.49167 197.659 6.51833 198.056 7.755C198.476 8.99167 198.721 10.45 198.791 12.13H202.746V1.175C202.746 0.848333 202.909 0.684999 203.236 0.684999H204.566C204.893 0.684999 205.056 0.848333 205.056 1.175V30.54ZM196.376 13.005C196.376 11.9317 196.271 10.8817 196.061 9.855C195.851 8.82833 195.536 7.90667 195.116 7.09C194.696 6.27333 194.159 5.62 193.506 5.13C192.876 4.61666 192.129 4.36 191.266 4.36C190.356 4.36 189.586 4.61666 188.956 5.13C188.349 5.64333 187.848 6.32 187.451 7.16C187.078 7.97667 186.809 8.89833 186.646 9.925C186.483 10.9517 186.401 11.9783 186.401 13.005C186.401 14.0317 186.494 15.07 186.681 16.12C186.868 17.1467 187.148 18.08 187.521 18.92C187.918 19.76 188.419 20.4483 189.026 20.985C189.656 21.4983 190.403 21.755 191.266 21.755C192.129 21.755 192.876 21.4983 193.506 20.985C194.159 20.4717 194.696 19.8067 195.116 18.99C195.536 18.15 195.851 17.205 196.061 16.155C196.271 15.105 196.376 14.055 196.376 13.005ZM211.251 31.87C211.251 32.1967 211.088 32.36 210.761 32.36H209.431C209.104 32.36 208.941 32.1967 208.941 31.87V0.579999C208.941 0.253332 209.104 0.0899988 209.431 0.0899988H210.761C211.088 0.0899988 211.251 0.253332 211.251 0.579999V31.87ZM243.011 31.87C243.011 32.1967 242.848 32.36 242.521 32.36H241.086C240.759 32.36 240.596 32.1967 240.596 31.87V13.6H232.931C232.628 13.6 232.476 13.46 232.476 13.18V11.92C232.476 11.64 232.628 11.5 232.931 11.5H240.596V0.579999C240.596 0.253332 240.759 0.0899988 241.086 0.0899988H242.521C242.848 0.0899988 243.011 0.253332 243.011 0.579999V31.87ZM227.541 2.365C227.541 3.905 227.471 5.38667 227.331 6.81C227.214 8.21 227.016 9.56333 226.736 10.87C226.969 11.8033 227.331 12.795 227.821 13.845C228.311 14.8717 228.883 15.8983 229.536 16.925C230.213 17.9517 230.959 18.955 231.776 19.935C232.616 20.8917 233.503 21.755 234.436 22.525C234.553 22.6183 234.611 22.735 234.611 22.875C234.634 23.015 234.611 23.1317 234.541 23.225L233.666 24.31C233.456 24.5667 233.211 24.5667 232.931 24.31C232.278 23.75 231.601 23.085 230.901 22.315C230.224 21.5217 229.559 20.6933 228.906 19.83C228.276 18.9667 227.681 18.08 227.121 17.17C226.561 16.26 226.083 15.385 225.686 14.545C224.939 16.6683 223.959 18.6283 222.746 20.425C221.533 22.1983 220.086 23.855 218.406 25.395C218.173 25.5817 217.974 25.5933 217.811 25.43L216.761 24.345C216.691 24.275 216.656 24.1817 216.656 24.065C216.679 23.9483 216.749 23.8317 216.866 23.715C218.289 22.3617 219.526 20.9383 220.576 19.445C221.626 17.9517 222.478 16.3417 223.131 14.615C223.808 12.8883 224.298 11.01 224.601 8.98C224.928 6.95 225.091 4.72167 225.091 2.295C225.091 2.13167 225.126 2.015 225.196 1.945C225.289 1.85167 225.394 1.805 225.511 1.805L227.156 1.875C227.413 1.875 227.541 2.03833 227.541 2.365ZM268.656 32.08C268.096 32.08 267.641 32.045 267.291 31.975C266.964 31.905 266.707 31.765 266.521 31.555C266.334 31.3683 266.206 31.1117 266.136 30.785C266.066 30.4817 266.031 30.085 266.031 29.595V19.76C266.031 19.6433 266.077 19.55 266.171 19.48C266.264 19.41 266.369 19.375 266.486 19.375H268.026C268.142 19.375 268.236 19.4217 268.306 19.515C268.399 19.585 268.446 19.6667 268.446 19.76V23.47H284.476V19.83C284.476 19.7133 284.511 19.6083 284.581 19.515C284.674 19.4217 284.779 19.375 284.896 19.375H286.436C286.552 19.375 286.657 19.4217 286.751 19.515C286.844 19.585 286.891 19.6783 286.891 19.795V29.84C286.891 30.7267 286.704 31.3217 286.331 31.625C285.957 31.9283 285.257 32.08 284.231 32.08H268.656ZM260.396 4.045C260.396 3.065 260.582 2.41166 260.956 2.085C261.329 1.735 262.029 1.56 263.056 1.56H271.036C271.596 1.56 272.039 1.595 272.366 1.665C272.716 1.735 272.984 1.86333 273.171 2.05C273.381 2.23667 273.521 2.49333 273.591 2.82C273.661 3.14667 273.696 3.555 273.696 4.045V13.495C273.696 14.475 273.509 15.14 273.136 15.49C272.762 15.8167 272.062 15.98 271.036 15.98H263.056C262.496 15.98 262.041 15.945 261.691 15.875C261.364 15.805 261.096 15.6767 260.886 15.49C260.699 15.28 260.571 15.0233 260.501 14.72C260.431 14.3933 260.396 13.985 260.396 13.495V4.045ZM280.136 8.49H284.581V0.579999C284.581 0.253332 284.744 0.0899988 285.071 0.0899988H286.401C286.727 0.0899988 286.891 0.253332 286.891 0.579999V17.1C286.891 17.4267 286.727 17.59 286.401 17.59H285.071C284.744 17.59 284.581 17.4267 284.581 17.1V10.59H280.136V16.645C280.136 16.9717 279.972 17.135 279.646 17.135H278.316C277.989 17.135 277.826 16.9717 277.826 16.645V1.175C277.826 0.848333 277.989 0.684999 278.316 0.684999H279.646C279.972 0.684999 280.136 0.848333 280.136 1.175V8.49ZM263.651 3.66C263.324 3.66 263.102 3.73 262.986 3.87C262.869 3.98666 262.811 4.22 262.811 4.57V12.97C262.811 13.32 262.869 13.565 262.986 13.705C263.102 13.8217 263.324 13.88 263.651 13.88H270.441C270.767 13.88 270.989 13.8217 271.106 13.705C271.222 13.565 271.281 13.32 271.281 12.97V4.57C271.281 4.22 271.222 3.98666 271.106 3.87C270.989 3.73 270.767 3.66 270.441 3.66H263.651ZM268.446 25.57V29.14C268.446 29.49 268.504 29.7117 268.621 29.805C268.737 29.9217 268.959 29.98 269.286 29.98H283.636C283.962 29.98 284.184 29.9217 284.301 29.805C284.417 29.7117 284.476 29.49 284.476 29.14V25.57H268.446ZM324.925 8.315C324.388 8.875 323.665 9.45833 322.755 10.065C321.845 10.6717 320.807 11.2783 319.64 11.885C320.34 12.095 321.098 12.3283 321.915 12.585C322.755 12.8417 323.595 13.0867 324.435 13.32C325.275 13.5533 326.092 13.775 326.885 13.985C327.678 14.1717 328.378 14.3233 328.985 14.44C329.288 14.51 329.393 14.6733 329.3 14.93L328.88 16.19C328.81 16.4467 328.6 16.54 328.25 16.47C327.573 16.33 326.768 16.1433 325.835 15.91C324.902 15.6533 323.922 15.3733 322.895 15.07C321.868 14.7667 320.83 14.4517 319.78 14.125C318.753 13.7983 317.785 13.4833 316.875 13.18C314.938 14.02 312.908 14.7783 310.785 15.455C308.662 16.1083 306.678 16.575 304.835 16.855C304.625 16.9017 304.473 16.9017 304.38 16.855C304.31 16.8083 304.252 16.6917 304.205 16.505L303.89 15.385C303.843 15.1983 303.843 15.0583 303.89 14.965C303.96 14.8717 304.053 14.8133 304.17 14.79C305.57 14.5567 307.11 14.195 308.79 13.705C310.493 13.215 312.162 12.655 313.795 12.025C315.452 11.395 317.003 10.7183 318.45 9.995C319.92 9.27167 321.122 8.56 322.055 7.86C322.312 7.67333 322.463 7.475 322.51 7.265C322.557 7.03167 322.393 6.915 322.02 6.915H306.9C306.597 6.915 306.445 6.76333 306.445 6.46V5.235C306.445 4.955 306.597 4.815 306.9 4.815H322.965C326.465 4.815 327.118 5.98167 324.925 8.315ZM315.895 32.15C315.778 32.15 315.673 32.0917 315.58 31.975C315.487 31.8817 315.44 31.765 315.44 31.625V21.86H301.86C301.72 21.86 301.592 21.8133 301.475 21.72C301.382 21.6267 301.335 21.5217 301.335 21.405V20.215C301.335 20.075 301.382 19.97 301.475 19.9C301.592 19.8067 301.72 19.76 301.86 19.76H331.61C331.727 19.76 331.843 19.8067 331.96 19.9C332.077 19.97 332.135 20.075 332.135 20.215V21.405C332.135 21.5217 332.077 21.6267 331.96 21.72C331.843 21.8133 331.727 21.86 331.61 21.86H317.855V31.625C317.855 31.765 317.808 31.8817 317.715 31.975C317.645 32.0917 317.54 32.15 317.4 32.15H315.895ZM321.145 0.0899988C321.495 0.0899988 321.67 0.253332 321.67 0.579999V1.7C321.67 2.05 321.495 2.225 321.145 2.225H311.73C311.38 2.225 311.205 2.05 311.205 1.7V0.579999C311.205 0.253332 311.38 0.0899988 311.73 0.0899988H321.145ZM350.945 5.235C350.829 7.24167 350.432 9.21333 349.755 11.15C349.079 13.0867 348.134 14.9417 346.92 16.715C345.73 18.465 344.284 20.0983 342.58 21.615C340.9 23.1083 338.987 24.4267 336.84 25.57C336.537 25.7333 336.315 25.6983 336.175 25.465L335.405 24.24C335.242 23.96 335.289 23.7617 335.545 23.645C337.529 22.6183 339.279 21.4517 340.795 20.145C342.335 18.815 343.642 17.38 344.715 15.84C345.812 14.3 346.675 12.6783 347.305 10.975C347.935 9.27167 348.332 7.52167 348.495 5.725C348.542 5.375 348.495 5.14167 348.355 5.025C348.215 4.885 347.982 4.815 347.655 4.815H336.805C336.525 4.815 336.385 4.66333 336.385 4.36V3.135C336.385 2.855 336.525 2.715 336.805 2.715H348.32C349.417 2.715 350.14 2.925 350.49 3.345C350.84 3.74167 350.992 4.37167 350.945 5.235ZM360.15 31.87C360.15 32.1967 359.987 32.36 359.66 32.36H358.225C357.899 32.36 357.735 32.1967 357.735 31.87V0.579999C357.735 0.253332 357.899 0.0899988 358.225 0.0899988H359.66C359.987 0.0899988 360.15 0.253332 360.15 0.579999V12.97H364.98C365.12 12.97 365.237 13.0167 365.33 13.11C365.447 13.18 365.505 13.285 365.505 13.425V14.615C365.505 14.7317 365.447 14.8367 365.33 14.93C365.237 15.0233 365.12 15.07 364.98 15.07H360.15V31.87Z" fill="black"/>
</svg>
